# xmcd
#
# Track frame offsets: 
#        150
#        17015
#        30275
#        45222
#        62207
#        82730
#        100000
#        113975
#        130122
#        146102
#
# Disc length: 2186 seconds
#
# Revision: 3
# Processed by: cddbd v1.5.2PL0 Copyright (c) Steve Scherf et al.
# Submitted via: ExactAudioCopyFreeDBPlugin 1.0
#
DISCID=7208880a
DTITLE=The Rolling Stones - Forty Licks Sampler
DYEAR=2002
DGENRE=Rock
TTITLE0=I Cant Get No Satisfaction
TTITLE1=Get Off of My Cloud
TTITLE2=Ruby Tuesday
TTITLE3=Paint it Black
TTITLE4=Gimme Shelter
TTITLE5=Brown Sugar
TTITLE6=Happy
TTITLE7=Miss You
TTITLE8=Start me up
TTITLE9=Don't stop
EXTD=
EXTT0=
EXTT1=
EXTT2=
EXTT3=
EXTT4=
EXTT5=
EXTT6=
EXTT7=
EXTT8=
EXTT9=
PLAYORDER=
